REM DIRINDEX 1\2\4\8,1\2\4\9,1\2\4\10,1\2\5\11,1\2\5\12,1\2\5\13,1\2\5\14,1\2\5\15,1\3\6\16,1\3\6\17,1\3\6\18,1\3\7\19,1\3\7\20,1\3\7\21,1\3\7\22,1\3\7\23
REM DIRNAME "folder01","folder02","folder03","folder04","folder05","folder06","folder07","folder08","folder09","folder10","folder11","folder12","folder13","folder14","folder15","folder16","folder17","folder18","folder19","folder20","folder21","folder22","folder23"
TITLE ""
FILE "LR_black_phrase_A04.mp3" MP3
  TRACK 01 AUDIO
    TITLE "0:"
    INDEX 01 00:00:00
  TRACK 02 AUDIO
    TITLE "19:cjc171_11451"
    INDEX 01 00:00:12
  TRACK 03 AUDIO
    TITLE "0:"
    INDEX 01 00:01:20
  TRACK 04 AUDIO
    TITLE "20:cjc171_11452"
    INDEX 01 00:01:59
  TRACK 05 AUDIO
    TITLE "0:"
    INDEX 01 00:03:07
  TRACK 06 AUDIO
    TITLE "21:cjc171_11453"
    INDEX 01 00:04:06
  TRACK 07 AUDIO
    TITLE "0:"
    INDEX 01 00:06:32
  TRACK 08 AUDIO
    TITLE "22:cjc171_11454"
    INDEX 01 00:06:72
  TRACK 09 AUDIO
    TITLE "0:"
    INDEX 01 00:09:46
  TRACK 10 AUDIO
    TITLE "23:cjc171_11455"
    INDEX 01 00:10:03
  TRACK 11 AUDIO
    TITLE "0:"
    INDEX 01 00:12:51
  TRACK 12 AUDIO
    TITLE "19:cjc171_11456"
    INDEX 01 00:13:56
  TRACK 13 AUDIO
    TITLE "0:"
    INDEX 01 00:15:02
  TRACK 14 AUDIO
    TITLE "20:cjc171_11457"
    INDEX 01 00:15:39
  TRACK 15 AUDIO
    TITLE "0:"
    INDEX 01 00:18:16
  TRACK 16 AUDIO
    TITLE "21:cjc171_11458"
    INDEX 01 00:19:15
  TRACK 17 AUDIO
    TITLE "0:"
    INDEX 01 00:21:42
  TRACK 18 AUDIO
    TITLE "22:cjc171_11459"
    INDEX 01 00:22:04
  TRACK 19 AUDIO
    TITLE "0:"
    INDEX 01 00:24:34
  TRACK 20 AUDIO
    TITLE "23:cjc171_11460"
    INDEX 01 00:24:64
  TRACK 21 AUDIO
    TITLE "0:"
    INDEX 01 00:27:19
  TRACK 22 AUDIO
    TITLE "19:cjc171_11461"
    INDEX 01 00:28:24
  TRACK 23 AUDIO
    TITLE "0:"
    INDEX 01 00:29:45
  TRACK 24 AUDIO
    TITLE "20:cjc171_11462"
    INDEX 01 00:30:09
  TRACK 25 AUDIO
    TITLE "0:"
    INDEX 01 00:34:05
  TRACK 26 AUDIO
    TITLE "21:cjc171_11463"
    INDEX 01 00:34:74
  TRACK 27 AUDIO
    TITLE "0:"
    INDEX 01 00:37:58
  TRACK 28 AUDIO
    TITLE "22:cjc171_11464"
    INDEX 01 00:38:23
  TRACK 29 AUDIO
    TITLE "0:"
    INDEX 01 00:41:03
  TRACK 30 AUDIO
    TITLE "23:cjc171_11465"
    INDEX 01 00:41:33
  TRACK 31 AUDIO
    TITLE "0:"
    INDEX 01 00:44:13
  TRACK 32 AUDIO
    TITLE "19:cjc171_11466"
    INDEX 01 00:45:07
  TRACK 33 AUDIO
    TITLE "0:"
    INDEX 01 00:46:52
  TRACK 34 AUDIO
    TITLE "20:cjc171_11467"
    INDEX 01 00:47:12
  TRACK 35 AUDIO
    TITLE "0:"
    INDEX 01 00:48:74
  TRACK 36 AUDIO
    TITLE "21:cjc171_11468"
    INDEX 01 00:49:71
  TRACK 37 AUDIO
    TITLE "0:"
    INDEX 01 00:53:09
  TRACK 38 AUDIO
    TITLE "22:cjc171_11469"
    INDEX 01 00:53:44
  TRACK 39 AUDIO
    TITLE "0:"
    INDEX 01 00:56:19
  TRACK 40 AUDIO
    TITLE "23:cjc171_11470"
    INDEX 01 00:56:40
  TRACK 41 AUDIO
    TITLE "0:"
    INDEX 01 00:59:15
  TRACK 42 AUDIO
    TITLE "19:cjc171_11471"
    INDEX 01 01:00:09
  TRACK 43 AUDIO
    TITLE "0:"
    INDEX 01 01:01:26
  TRACK 44 AUDIO
    TITLE "20:cjc171_11472"
    INDEX 01 01:01:65
  TRACK 45 AUDIO
    TITLE "0:"
    INDEX 01 01:03:32
  TRACK 46 AUDIO
    TITLE "21:cjc171_11473"
    INDEX 01 01:04:32
  TRACK 47 AUDIO
    TITLE "0:"
    INDEX 01 01:06:70
  TRACK 48 AUDIO
    TITLE "22:cjc171_11474"
    INDEX 01 01:07:30
  TRACK 49 AUDIO
    TITLE "0:"
    INDEX 01 01:09:74
  TRACK 50 AUDIO
    TITLE "23:cjc171_11475"
    INDEX 01 01:10:23
  TRACK 51 AUDIO
    TITLE "0:"
    INDEX 01 01:12:67
  TRACK 52 AUDIO
    TITLE "19:cjc171_11476"
    INDEX 01 01:13:66
  TRACK 53 AUDIO
    TITLE "0:"
    INDEX 01 01:15:12
  TRACK 54 AUDIO
    TITLE "20:cjc171_11477"
    INDEX 01 01:15:51
  TRACK 55 AUDIO
    TITLE "0:"
    INDEX 01 01:16:72
  TRACK 56 AUDIO
    TITLE "21:cjc171_11478"
    INDEX 01 01:17:72
  TRACK 57 AUDIO
    TITLE "0:"
    INDEX 01 01:19:53
  TRACK 58 AUDIO
    TITLE "22:cjc171_11479"
    INDEX 01 01:20:13
  TRACK 59 AUDIO
    TITLE "0:"
    INDEX 01 01:22:12
  TRACK 60 AUDIO
    TITLE "23:cjc171_11480"
    INDEX 01 01:22:32
  TRACK 61 AUDIO
    TITLE "0:"
    INDEX 01 01:24:33
  TRACK 62 AUDIO
    TITLE "19:cjc171_11481"
    INDEX 01 01:25:32
  TRACK 63 AUDIO
    TITLE "0:"
    INDEX 01 01:26:51
  TRACK 64 AUDIO
    TITLE "20:cjc171_11482"
    INDEX 01 01:27:17
  TRACK 65 AUDIO
    TITLE "0:"
    INDEX 01 01:29:45
  TRACK 66 AUDIO
    TITLE "21:cjc171_11483"
    INDEX 01 01:30:45
  TRACK 67 AUDIO
    TITLE "0:"
    INDEX 01 01:32:48
  TRACK 68 AUDIO
    TITLE "22:cjc171_11484"
    INDEX 01 01:33:14
  TRACK 69 AUDIO
    TITLE "0:"
    INDEX 01 01:36:08
  TRACK 70 AUDIO
    TITLE "23:cjc171_11485"
    INDEX 01 01:36:40
  TRACK 71 AUDIO
    TITLE "0:"
    INDEX 01 01:39:34
  TRACK 72 AUDIO
    TITLE "19:cjc171_11486"
    INDEX 01 01:40:39
  TRACK 73 AUDIO
    TITLE "0:"
    INDEX 01 01:41:58
  TRACK 74 AUDIO
    TITLE "20:cjc171_11487"
    INDEX 01 01:42:27
  TRACK 75 AUDIO
    TITLE "0:"
    INDEX 01 01:43:46
  TRACK 76 AUDIO
    TITLE "21:cjc171_11488"
    INDEX 01 01:44:43
  TRACK 77 AUDIO
    TITLE "0:"
    INDEX 01 01:47:24
  TRACK 78 AUDIO
    TITLE "22:cjc171_11489"
    INDEX 01 01:47:65
  TRACK 79 AUDIO
    TITLE "0:"
    INDEX 01 01:50:30
  TRACK 80 AUDIO
    TITLE "23:cjc171_11490"
    INDEX 01 01:50:59
  TRACK 81 AUDIO
    TITLE "0:"
    INDEX 01 01:53:24
  TRACK 82 AUDIO
    TITLE "19:cjc171_11491"
    INDEX 01 01:54:30
  TRACK 83 AUDIO
    TITLE "0:"
    INDEX 01 01:55:57
  TRACK 84 AUDIO
    TITLE "20:cjc171_11492"
    INDEX 01 01:56:19
  TRACK 85 AUDIO
    TITLE "0:"
    INDEX 01 01:58:65
  TRACK 86 AUDIO
    TITLE "21:cjc171_11493"
    INDEX 01 01:59:66
  TRACK 87 AUDIO
    TITLE "0:"
    INDEX 01 02:01:73
  TRACK 88 AUDIO
    TITLE "22:cjc171_11494"
    INDEX 01 02:02:33
  TRACK 89 AUDIO
    TITLE "0:"
    INDEX 01 02:04:32
  TRACK 90 AUDIO
    TITLE "23:cjc171_11495"
    INDEX 01 02:04:58
  TRACK 91 AUDIO
    TITLE "0:"
    INDEX 01 02:06:56
  TRACK 92 AUDIO
    TITLE "19:cjc171_11496"
    INDEX 01 02:07:60
  TRACK 93 AUDIO
    TITLE "0:"
    INDEX 01 02:08:61
  TRACK 94 AUDIO
    TITLE "20:cjc171_11497"
    INDEX 01 02:09:23
  TRACK 95 AUDIO
    TITLE "0:"
    INDEX 01 02:11:24
  TRACK 96 AUDIO
    TITLE "21:cjc171_11498"
    INDEX 01 02:12:22
  TRACK 97 AUDIO
    TITLE "0:"
    INDEX 01 02:14:68
  TRACK 98 AUDIO
    TITLE "22:cjc171_11499"
    INDEX 01 02:15:28
  TRACK 99 AUDIO
    TITLE "0:"
    INDEX 01 02:18:48
  TRACK 100 AUDIO
    TITLE "23:cjc171_11500"
    INDEX 01 02:18:67
  TRACK 101 AUDIO
    TITLE "0:"
    INDEX 01 02:22:12
  TRACK 102 AUDIO
    TITLE "19:cjc171_11501"
    INDEX 01 02:23:12
  TRACK 103 AUDIO
    TITLE "0:"
    INDEX 01 02:24:33
  TRACK 104 AUDIO
    TITLE "20:cjc171_11502"
    INDEX 01 02:24:70
  TRACK 105 AUDIO
    TITLE "0:"
    INDEX 01 02:27:23
  TRACK 106 AUDIO
    TITLE "21:cjc171_11503"
    INDEX 01 02:28:23
  TRACK 107 AUDIO
    TITLE "0:"
    INDEX 01 02:31:05
  TRACK 108 AUDIO
    TITLE "22:cjc171_11504"
    INDEX 01 02:31:39
  TRACK 109 AUDIO
    TITLE "0:"
    INDEX 01 02:34:06
  TRACK 110 AUDIO
    TITLE "23:cjc171_11505"
    INDEX 01 02:34:27
  TRACK 111 AUDIO
    TITLE "0:"
    INDEX 01 02:36:67
  TRACK 112 AUDIO
    TITLE "19:cjc171_11506"
    INDEX 01 02:37:65
  TRACK 113 AUDIO
    TITLE "0:"
    INDEX 01 02:39:09
  TRACK 114 AUDIO
    TITLE "20:cjc171_11507"
    INDEX 01 02:39:44
  TRACK 115 AUDIO
    TITLE "0:"
    INDEX 01 02:42:07
  TRACK 116 AUDIO
    TITLE "21:cjc171_11508"
    INDEX 01 02:43:05
  TRACK 117 AUDIO
    TITLE "0:"
    INDEX 01 02:44:43
  TRACK 118 AUDIO
    TITLE "22:cjc171_11509"
    INDEX 01 02:45:04
  TRACK 119 AUDIO
    TITLE "0:"
    INDEX 01 02:46:72
  TRACK 120 AUDIO
    TITLE "23:cjc171_11510"
    INDEX 01 02:47:16
  TRACK 121 AUDIO
    TITLE "0:"
    INDEX 01 02:49:09
  TRACK 122 AUDIO
    TITLE "19:cjc171_11511"
    INDEX 01 02:50:09
  TRACK 123 AUDIO
    TITLE "0:"
    INDEX 01 02:51:26
  TRACK 124 AUDIO
    TITLE "20:cjc171_11512"
    INDEX 01 02:51:65
  TRACK 125 AUDIO
    TITLE "0:"
    INDEX 01 02:53:62
  TRACK 126 AUDIO
    TITLE "21:cjc171_11513"
    INDEX 01 02:54:61
  TRACK 127 AUDIO
    TITLE "0:"
    INDEX 01 02:57:07
  TRACK 128 AUDIO
    TITLE "22:cjc171_11514"
    INDEX 01 02:57:44
  TRACK 129 AUDIO
    TITLE "0:"
    INDEX 01 03:00:11
  TRACK 130 AUDIO
    TITLE "23:cjc171_11515"
    INDEX 01 03:00:42
  TRACK 131 AUDIO
    TITLE "0:"
    INDEX 01 03:03:09
  TRACK 132 AUDIO
    TITLE "19:cjc171_11516"
    INDEX 01 03:04:15
  TRACK 133 AUDIO
    TITLE "0:"
    INDEX 01 03:05:28
  TRACK 134 AUDIO
    TITLE "20:cjc171_11517"
    INDEX 01 03:05:67
  TRACK 135 AUDIO
    TITLE "0:"
    INDEX 01 03:08:20
  TRACK 136 AUDIO
    TITLE "21:cjc171_11518"
    INDEX 01 03:09:20
  TRACK 137 AUDIO
    TITLE "0:"
    INDEX 01 03:12:01
  TRACK 138 AUDIO
    TITLE "22:cjc171_11519"
    INDEX 01 03:12:40
  TRACK 139 AUDIO
    TITLE "0:"
    INDEX 01 03:14:68
  TRACK 140 AUDIO
    TITLE "23:cjc171_11520"
    INDEX 01 03:15:22
  TRACK 141 AUDIO
    TITLE "0:"
    INDEX 01 03:17:49
  TRACK 142 AUDIO
    TITLE "19:cjc171_11521"
    INDEX 01 03:18:54
  TRACK 143 AUDIO
    TITLE "0:"
    INDEX 01 03:20:14
  TRACK 144 AUDIO
    TITLE "20:cjc171_11522"
    INDEX 01 03:20:53
  TRACK 145 AUDIO
    TITLE "0:"
    INDEX 01 03:22:69
  TRACK 146 AUDIO
    TITLE "21:cjc171_11523"
    INDEX 01 03:23:71
  TRACK 147 AUDIO
    TITLE "0:"
    INDEX 01 03:26:61
  TRACK 148 AUDIO
    TITLE "22:cjc171_11524"
    INDEX 01 03:27:28
  TRACK 149 AUDIO
    TITLE "0:"
    INDEX 01 03:29:66
  TRACK 150 AUDIO
    TITLE "23:cjc171_11525"
    INDEX 01 03:30:20
  TRACK 151 AUDIO
    TITLE "0:"
    INDEX 01 03:32:58
  TRACK 152 AUDIO
    TITLE "19:cjc171_11526"
    INDEX 01 03:33:57
  TRACK 153 AUDIO
    TITLE "0:"
    INDEX 01 03:34:69
  TRACK 154 AUDIO
    TITLE "20:cjc171_11527"
    INDEX 01 03:35:29
  TRACK 155 AUDIO
    TITLE "0:"
    INDEX 01 03:37:75
  TRACK 156 AUDIO
    TITLE "21:cjc171_11528"
    INDEX 01 03:38:68
  TRACK 157 AUDIO
    TITLE "0:"
    INDEX 01 03:42:51
  TRACK 158 AUDIO
    TITLE "22:cjc171_11529"
    INDEX 01 03:43:11
  TRACK 159 AUDIO
    TITLE "0:"
    INDEX 01 03:46:37
  TRACK 160 AUDIO
    TITLE "23:cjc171_11530"
    INDEX 01 03:46:56
  TRACK 161 AUDIO
    TITLE "0:"
    INDEX 01 03:50:07
  TRACK 162 AUDIO
    TITLE "19:cjc171_11531"
    INDEX 01 03:51:04
  TRACK 163 AUDIO
    TITLE "0:"
    INDEX 01 03:52:35
  TRACK 164 AUDIO
    TITLE "20:cjc171_11532"
    INDEX 01 03:52:74
  TRACK 165 AUDIO
    TITLE "0:"
    INDEX 01 03:54:44
  TRACK 166 AUDIO
    TITLE "21:cjc171_11533"
    INDEX 01 03:55:41
  TRACK 167 AUDIO
    TITLE "0:"
    INDEX 01 03:59:02
  TRACK 168 AUDIO
    TITLE "22:cjc171_11534"
    INDEX 01 03:59:35
  TRACK 169 AUDIO
    TITLE "0:"
    INDEX 01 04:02:34
  TRACK 170 AUDIO
    TITLE "23:cjc171_11535"
    INDEX 01 04:02:51
  TRACK 171 AUDIO
    TITLE "0:"
    INDEX 01 04:05:52
  TRACK 172 AUDIO
    TITLE "19:cjc171_11536"
    INDEX 01 04:06:45
  TRACK 173 AUDIO
    TITLE "0:"
    INDEX 01 04:07:70
  TRACK 174 AUDIO
    TITLE "20:cjc171_11537"
    INDEX 01 04:08:32
  TRACK 175 AUDIO
    TITLE "0:"
    INDEX 01 04:11:66
  TRACK 176 AUDIO
    TITLE "21:cjc171_11538"
    INDEX 01 04:12:63
  TRACK 177 AUDIO
    TITLE "0:"
    INDEX 01 04:15:07
  TRACK 178 AUDIO
    TITLE "22:cjc171_11539"
    INDEX 01 04:15:42
  TRACK 179 AUDIO
    TITLE "0:"
    INDEX 01 04:17:61
  TRACK 180 AUDIO
    TITLE "23:cjc171_11540"
    INDEX 01 04:18:05
  TRACK 181 AUDIO
    TITLE "0:"
    INDEX 01 04:20:24
  TRACK 182 AUDIO
    TITLE "19:cjc171_11541"
    INDEX 01 04:21:23
  TRACK 183 AUDIO
    TITLE "0:"
    INDEX 01 04:22:38
  TRACK 184 AUDIO
    TITLE "20:cjc171_11542"
    INDEX 01 04:23:04
  TRACK 185 AUDIO
    TITLE "0:"
    INDEX 01 04:24:55
  TRACK 186 AUDIO
    TITLE "21:cjc171_11543"
    INDEX 01 04:25:54
  TRACK 187 AUDIO
    TITLE "0:"
    INDEX 01 04:28:62
  TRACK 188 AUDIO
    TITLE "22:cjc171_11544"
    INDEX 01 04:29:29
  TRACK 189 AUDIO
    TITLE "0:"
    INDEX 01 04:32:03
  TRACK 190 AUDIO
    TITLE "23:cjc171_11545"
    INDEX 01 04:32:33
  TRACK 191 AUDIO
    TITLE "0:"
    INDEX 01 04:35:10
  TRACK 192 AUDIO
    TITLE "19:cjc171_11546"
    INDEX 01 04:36:13
  TRACK 193 AUDIO
    TITLE "0:"
    INDEX 01 04:37:34
  TRACK 194 AUDIO
    TITLE "20:cjc171_11547"
    INDEX 01 04:37:73
  TRACK 195 AUDIO
    TITLE "0:"
    INDEX 01 04:40:60
  TRACK 196 AUDIO
    TITLE "21:cjc171_11548"
    INDEX 01 04:41:59
  TRACK 197 AUDIO
    TITLE "0:"
    INDEX 01 04:44:38
  TRACK 198 AUDIO
    TITLE "22:cjc171_11549"
    INDEX 01 04:45:02
  TRACK 199 AUDIO
    TITLE "0:"
    INDEX 01 04:48:14
  TRACK 200 AUDIO
    TITLE "23:cjc171_11550"
    INDEX 01 04:48:46
  TRACK 201 AUDIO
    TITLE "0:"
    INDEX 01 04:51:56
  TRACK 202 AUDIO
    TITLE "19:cjc171_11551"
    INDEX 01 04:52:63
  TRACK 203 AUDIO
    TITLE "0:"
    INDEX 01 04:54:01
  TRACK 204 AUDIO
    TITLE "20:cjc171_11552"
    INDEX 01 04:54:40
  TRACK 205 AUDIO
    TITLE "0:"
    INDEX 01 04:57:01
  TRACK 206 AUDIO
    TITLE "21:cjc171_11553"
    INDEX 01 04:57:74
  TRACK 207 AUDIO
    TITLE "0:"
    INDEX 01 05:01:01
  TRACK 208 AUDIO
    TITLE "22:cjc171_11554"
    INDEX 01 05:01:38
  TRACK 209 AUDIO
    TITLE "0:"
    INDEX 01 05:03:67
  TRACK 210 AUDIO
    TITLE "23:cjc171_11555"
    INDEX 01 05:04:19
  TRACK 211 AUDIO
    TITLE "0:"
    INDEX 01 05:06:45
  TRACK 212 AUDIO
    TITLE "19:cjc171_11556"
    INDEX 01 05:07:47
  TRACK 213 AUDIO
    TITLE "0:"
    INDEX 01 05:09:03
  TRACK 214 AUDIO
    TITLE "20:cjc171_11557"
    INDEX 01 05:09:44
  TRACK 215 AUDIO
    TITLE "0:"
    INDEX 01 05:11:17
  TRACK 216 AUDIO
    TITLE "21:cjc171_11558"
    INDEX 01 05:12:15
  TRACK 217 AUDIO
    TITLE "0:"
    INDEX 01 05:15:03
  TRACK 218 AUDIO
    TITLE "22:cjc171_11559"
    INDEX 01 05:15:37
  TRACK 219 AUDIO
    TITLE "0:"
    INDEX 01 05:18:15
  TRACK 220 AUDIO
    TITLE "23:cjc171_11560"
    INDEX 01 05:18:37
  TRACK 221 AUDIO
    TITLE "0:"
    INDEX 01 05:21:16
  TRACK 222 AUDIO
    TITLE "19:cjc171_11561"
    INDEX 01 05:22:13
  TRACK 223 AUDIO
    TITLE "0:"
    INDEX 01 05:23:34
  TRACK 224 AUDIO
    TITLE "20:cjc171_11562"
    INDEX 01 05:23:73
  TRACK 225 AUDIO
    TITLE "0:"
    INDEX 01 05:25:31
  TRACK 226 AUDIO
    TITLE "21:cjc171_11563"
    INDEX 01 05:26:30
  TRACK 227 AUDIO
    TITLE "0:"
    INDEX 01 05:28:49
  TRACK 228 AUDIO
    TITLE "22:cjc171_11564"
    INDEX 01 05:29:09
  TRACK 229 AUDIO
    TITLE "0:"
    INDEX 01 05:31:41
  TRACK 230 AUDIO
    TITLE "23:cjc171_11565"
    INDEX 01 05:31:65
  TRACK 231 AUDIO
    TITLE "0:"
    INDEX 01 05:34:22
  TRACK 232 AUDIO
    TITLE "19:cjc171_11566"
    INDEX 01 05:35:20
  TRACK 233 AUDIO
    TITLE "0:"
    INDEX 01 05:36:54
  TRACK 234 AUDIO
    TITLE "20:cjc171_11567"
    INDEX 01 05:37:22
  TRACK 235 AUDIO
    TITLE "0:"
    INDEX 01 05:38:59
  TRACK 236 AUDIO
    TITLE "21:cjc171_11568"
    INDEX 01 05:39:59
  TRACK 237 AUDIO
    TITLE "0:"
    INDEX 01 05:42:08
  TRACK 238 AUDIO
    TITLE "22:cjc171_11569"
    INDEX 01 05:42:45
  TRACK 239 AUDIO
    TITLE "0:"
    INDEX 01 05:45:47
  TRACK 240 AUDIO
    TITLE "23:cjc171_11570"
    INDEX 01 05:45:73
  TRACK 241 AUDIO
    TITLE "0:"
    INDEX 01 05:48:75
  TRACK 242 AUDIO
    TITLE "19:cjc171_11571"
    INDEX 01 05:49:71
  TRACK 243 AUDIO
    TITLE "0:"
    INDEX 01 05:51:17
  TRACK 244 AUDIO
    TITLE "20:cjc171_11572"
    INDEX 01 05:51:54
  TRACK 245 AUDIO
    TITLE "0:"
    INDEX 01 05:54:15
  TRACK 246 AUDIO
    TITLE "21:cjc171_11573"
    INDEX 01 05:55:15
  TRACK 247 AUDIO
    TITLE "0:"
    INDEX 01 05:57:70
  TRACK 248 AUDIO
    TITLE "22:cjc171_11574"
    INDEX 01 05:58:34
  TRACK 249 AUDIO
    TITLE "0:"
    INDEX 01 06:00:59
  TRACK 250 AUDIO
    TITLE "23:cjc171_11575"
    INDEX 01 06:01:11
  TRACK 251 AUDIO
    TITLE "0:"
    INDEX 01 06:03:36
  TRACK 252 AUDIO
    TITLE "19:cjc171_11576"
    INDEX 01 06:04:39
  TRACK 253 AUDIO
    TITLE "0:"
    INDEX 01 06:05:48
  TRACK 254 AUDIO
    TITLE "20:cjc171_11577"
    INDEX 01 06:06:12
  TRACK 255 AUDIO
    TITLE "0:"
    INDEX 01 06:08:29
  TRACK 256 AUDIO
    TITLE "21:cjc171_11578"
    INDEX 01 06:09:30
  TRACK 257 AUDIO
    TITLE "0:"
    INDEX 01 06:11:06
  TRACK 258 AUDIO
    TITLE "22:cjc171_11579"
    INDEX 01 06:11:45
  TRACK 259 AUDIO
    TITLE "0:"
    INDEX 01 06:13:30
  TRACK 260 AUDIO
    TITLE "23:cjc171_11580"
    INDEX 01 06:13:57
  TRACK 261 AUDIO
    TITLE "0:"
    INDEX 01 06:15:43
  TRACK 262 AUDIO
    TITLE "19:cjc171_11581"
    INDEX 01 06:16:46
  TRACK 263 AUDIO
    TITLE "0:"
    INDEX 01 06:18:04
  TRACK 264 AUDIO
    TITLE "20:cjc171_11582"
    INDEX 01 06:18:45
  TRACK 265 AUDIO
    TITLE "0:"
    INDEX 01 06:20:24
  TRACK 266 AUDIO
    TITLE "21:cjc171_11583"
    INDEX 01 06:21:22
  TRACK 267 AUDIO
    TITLE "0:"
    INDEX 01 06:22:68
  TRACK 268 AUDIO
    TITLE "22:cjc171_11584"
    INDEX 01 06:23:32
  TRACK 269 AUDIO
    TITLE "0:"
    INDEX 01 06:25:41
  TRACK 270 AUDIO
    TITLE "23:cjc171_11585"
    INDEX 01 06:25:72
  TRACK 271 AUDIO
    TITLE "0:"
    INDEX 01 06:28:06
  TRACK 272 AUDIO
    TITLE "19:cjc171_11586"
    INDEX 01 06:29:08
  TRACK 273 AUDIO
    TITLE "0:"
    INDEX 01 06:30:15
  TRACK 274 AUDIO
    TITLE "20:cjc171_11587"
    INDEX 01 06:30:50
  TRACK 275 AUDIO
    TITLE "0:"
    INDEX 01 06:31:57
  TRACK 276 AUDIO
    TITLE "21:cjc171_11588"
    INDEX 01 06:32:59
  TRACK 277 AUDIO
    TITLE "0:"
    INDEX 01 06:35:34
  TRACK 278 AUDIO
    TITLE "22:cjc171_11589"
    INDEX 01 06:35:73
  TRACK 279 AUDIO
    TITLE "0:"
    INDEX 01 06:38:69
  TRACK 280 AUDIO
    TITLE "23:cjc171_11590"
    INDEX 01 06:39:20
  TRACK 281 AUDIO
    TITLE "0:"
    INDEX 01 06:42:16
  TRACK 282 AUDIO
    TITLE "19:cjc171_11591"
    INDEX 01 06:43:15
  TRACK 283 AUDIO
    TITLE "0:"
    INDEX 01 06:44:29
  TRACK 284 AUDIO
    TITLE "20:cjc171_11592"
    INDEX 01 06:44:66
  TRACK 285 AUDIO
    TITLE "0:"
    INDEX 01 06:46:06
  TRACK 286 AUDIO
    TITLE "21:cjc171_11593"
    INDEX 01 06:47:05
  TRACK 287 AUDIO
    TITLE "0:"
    INDEX 01 06:49:24
  TRACK 288 AUDIO
    TITLE "22:cjc171_11594"
    INDEX 01 06:49:57
  TRACK 289 AUDIO
    TITLE "0:"
    INDEX 01 06:51:72
  TRACK 290 AUDIO
    TITLE "23:cjc171_11595"
    INDEX 01 06:52:16
  TRACK 291 AUDIO
    TITLE "0:"
    INDEX 01 06:54:31
  TRACK 292 AUDIO
    TITLE "19:cjc171_11596"
    INDEX 01 06:55:27
  TRACK 293 AUDIO
    TITLE "0:"
    INDEX 01 06:56:30
  TRACK 294 AUDIO
    TITLE "20:cjc171_11597"
    INDEX 01 06:56:67
  TRACK 295 AUDIO
    TITLE "0:"
    INDEX 01 06:58:21
  TRACK 296 AUDIO
    TITLE "21:cjc171_11598"
    INDEX 01 06:59:20
  TRACK 297 AUDIO
    TITLE "0:"
    INDEX 01 07:01:11
  TRACK 298 AUDIO
    TITLE "22:cjc171_11599"
    INDEX 01 07:01:45
  TRACK 299 AUDIO
    TITLE "0:"
    INDEX 01 07:03:22
  TRACK 300 AUDIO
    TITLE "23:cjc171_11600"
    INDEX 01 07:03:44
  TRACK 301 AUDIO
    TITLE "0:"
    INDEX 01 07:05:19
